<?xml version="1.0" encoding="UTF-8"?>
<!DOCTYPE svg  PUBLIC '-//W3C//DTD SVG 1.1//EN'  'http://www.w3.org/Graphics/SVG/1.1/DTD/svg11.dtd'>
<svg version="1.1" xmlns="http://www.w3.org/2000/svg">
<defs>
<font id="Metropolis-Regular" horiz-adv-x="592">
<font-face font-family="Metropolis" font-weight="400" ascent="795" bbox="-57 -192 1044 965" cap-height="687" descent="-205" panose-1="0 0 5 0 0 0 0 0 0 0" underline-position="-133" underline-thickness="20" unicode-range="U+0020-00FE" units-per-em="1000" x-height="517"/>
<missing-glyph/>
<glyph glyph-name="space" horiz-adv-x="290" unicode=" "/>
<glyph d="M112 193l-19 494h92l-20 -494h-53zM138 -12q-35 0 -50 32q-5 11 -5 23q0 32 30 47q12 6 25 6q33 0 48 -30q5 -12 5 -23q0 -35 -31 -50q-11 -5 -22 -5z" glyph-name="exclam" horiz-adv-x="273" unicode="!"/>
<glyph d="M95 429q-22 159 -23 176q-1 14 -1 24q0 30 28 42q9 4 18 4q30 0 42 -28q4 -9 4 -18q0 -31 -23 -192q-1 -5 -1 -8h-44zM275 429q-22 159 -23 176q-1 14 -1 24q0 30 28 42q9 4 18 4q30 0 42 -28q4 -9 4 -18q0 -31 -23 -192q-1 -5 -1 -8h-44z" glyph-name="quotedbl" horiz-adv-x="414" unicode='"'/>
<glyph d="M619 446h-118l-52 -206h118l-15 -61h-118l-45 -179h-66l45 179h-150l-45 -179h-66l45 179h-113l15 61h113l52 206h-114l15 61h115l45 180h66l-45 -180h150l45 180h66l-45 -180h117zM383 240l52 206h-150l-52 -206h150z" glyph-name="numbersign" horiz-adv-x="674" unicode="#"/>
<glyph d="M559 187q0 -104 -86 -158q-54 -34 -131 -39v-64h-78v66q-126 16 -218 106l49 61q77 -76 169 -94v253q-132 34 -172 98q-22 37 -22 88q0 92 78 149q50 37 116 45v61h78v-61q110 -14 199 -96l-48 -61q-72 68 -151 83v-240q147 -36 191 -104q26 -39 26 -93zM149 510 q0 -60 75 -91q18 -7 40 -14v221q-72 -13 -102 -67q-13 -24 -13 -49zM342 61q93 7 126 71q12 23 12 48q0 63 -73 96q-27 11 -65 22v-237z" glyph-name="dollar" horiz-adv-x="613" unicode="$"/>
<glyph d="M206 349q-85 0 -130 70q-29 45 -29 100q0 92 64 142q42 32 96 32q85 0 130 -70q29 -45 29 -102q0 -91 -64 -140q-42 -32 -96 -32zM131 0l470 687h66l-470 -687h-66zM207 403q56 0 82 54q14 29 14 63q0 71 -48 104q-23 15 -49 15q-56 0 -83 -56q-13 -28 -13 -63 q0 -67 46 -101q24 -16 51 -16zM588 -10q-83 0 -129 68q-30 45 -30 104q0 87 61 137q43 35 99 35q84 0 130 -70q29 -45 29 -101q0 -91 -64 -141q-42 -32 -96 -32zM589 44q57 0 83 56q13 28 13 62q0 70 -47 103q-23 15 -50 15q-56 0 -83 -55q-13 -29 -13 -62q0 -72 48 -105 q23 -14 49 -14z" glyph-name="percent" horiz-adv-x="796" unicode="%"/>
<glyph d="M628 26l-71 -33l-90 91q-93 -96 -210 -96q-114 0 -175 73q-41 51 -41 121q2 131 157 201q-58 81 -58 151q0 82 66 129q47 32 109 32q81 0 129 -63q33 -43 33 -96q0 -85 -91 -137q-31 -17 -77 -36q62 -72 157 -172q48 72 78 154l65 -29q-49 -109 -95 -174zM315 628 q-65 0 -90 -49q-10 -21 -10 -45q1 -55 54 -123q100 39 122 79q11 20 11 44q0 57 -43 82q-21 12 -44 12zM260 55q86 1 159 78q-116 121 -182 200q-120 -57 -121 -149q0 -77 68 -112q35 -17 76 -17z" glyph-name="ampersand" horiz-adv-x="670" unicode="&amp;"/>
<glyph d="M95 429q-22 159 -23 176q-1 14 -1 24q0 30 28 42q9 4 18 4q30 0 42 -28q4 -9 4 -18q0 -31 -23 -192q-1 -5 -1 -8h-44z" glyph-name="quotesingle" horiz-adv-x="234" unicode="'"/>
<glyph d="M271 -170q-187 156 -207 385q-2 25 -2 50q0 244 186 415q12 10 23 20l40 -42q-136 -140 -162 -301q-7 -44 -7 -92q0 -192 124 -342q21 -25 45 -50z" glyph-name="parenleft" horiz-adv-x="357" unicode="("/>
<glyph d="M86 -170l-40 43q141 143 164 312q5 39 5 80q0 189 -118 336q-24 29 -51 57l40 42q194 -162 208 -401q1 -17 1 -34q0 -236 -175 -405q-17 -16 -34 -30z" glyph-name="parenright" horiz-adv-x="357" unicode=")"/>
<glyph d="M204 376q-19 0 -24 16q-1 4 -1 6q0 20 13 105q2 11 3 20q-13 -9 -37 -29q-41 -34 -63 -47q-15 -9 -29 7q-2 2 -3 4q-10 18 4 30q2 1 3 2q18 10 95 40q12 5 21 9q-14 6 -43 17q-50 19 -73 32q-16 10 -9 29q1 2 2 3q11 18 28 13q3 -1 4 -2q18 -10 80 -61q11 -9 20 -15 q-2 15 -7 45q-9 53 -9 80q0 17 19 21q3 1 6 1q19 0 24 -16q1 -4 1 -6q0 -20 -13 -105q-2 -11 -3 -20q13 9 37 29q41 34 63 47q15 9 29 -7q2 -2 3 -4q10 -18 -4 -30q-2 -1 -3 -2q-18 -10 -95 -40q-12 -5 -21 -9q14 -6 43 -17q50 -19 73 -32q16 -10 9 -29q-1 -2 -2 -3 q-11 -18 -28 -13q-3 1 -4 2q-18 10 -80 61q-11 9 -20 15q2 -15 7 -45q9 -53 9 -80q0 -17 -19 -21q-3 -1 -6 -1z" glyph-name="asterisk" horiz-adv-x="409" unicode="*"/>
<glyph d="M526 371v-74h-192v-192h-75v192h-192v74h192v193h75v-193h192z" glyph-name="plus" horiz-adv-x="593" unicode="+"/>
<glyph d="M116 -133l-37 28q40 46 52 93q-34 0 -49 32q-5 11 -5 23q0 34 31 48q12 5 24 5q43 0 57 -48q4 -15 4 -32q0 -45 -46 -108q-13 -19 -31 -41z" glyph-name="comma" horiz-adv-x="264" unicode=","/>
<glyph d="M56 235v73h259v-73h-259z" glyph-name="hyphen" horiz-adv-x="371" unicode="-"/>
<glyph d="M128 -12q-35 0 -50 32q-5 11 -5 23q0 32 30 47q12 6 25 6q33 0 48 -30q5 -12 5 -23q0 -35 -31 -50q-11 -5 -22 -5z" glyph-name="period" horiz-adv-x="253" unicode="."/>
<glyph d="M-16 -74l351 817h85l-351 -817h-85z" glyph-name="slash" horiz-adv-x="415" unicode="/"/>
<glyph d="M345 -12q-132 0 -213 108q-73 99 -73 248q0 173 96 273q78 82 190 82q131 0 211 -108q74 -99 74 -247q0 -173 -95 -274q-78 -82 -190 -82zM345 60q100 0 159 95q47 78 47 189q0 149 -79 229q-54 54 -127 54q-100 0 -159 -94q-48 -78 -48 -189q0 -147 78 -228 q55 -56 129 -56z" glyph-name="zero" horiz-adv-x="689" unicode="0"/>
<glyph d="M180 0v592l-120 -78l-34 58l169 115h63v-687h-78z" glyph-name="one" horiz-adv-x="353" unicode="1"/>
<glyph d="M49 0v65l251 214q129 110 136 203q1 7 1 14q0 76 -66 114q-36 19 -77 19q-106 -1 -184 -107l-55 45q94 131 242 132q106 0 170 -71q49 -55 49 -131q0 -98 -83 -191q-32 -36 -79 -76l-180 -156h349v-74h-474z" glyph-name="two" horiz-adv-x="589" unicode="2"/>
<glyph d="M290 -12q-139 0 -228 93q-12 12 -22 25l54 51q77 -97 196 -98q98 0 140 63q20 30 20 68q0 90 -104 114q-33 8 -73 8h-73v72l74 -1q100 -1 142 57q19 29 19 64q0 67 -64 102q-39 22 -88 22q-99 -2 -179 -97l-52 47q92 120 235 121q120 0 185 -73q42 -48 42 -113 q0 -99 -95 -146q-18 -9 -38 -15q91 -21 128 -88q20 -35 20 -78q0 -101 -85 -157q-64 -41 -154 -41z" glyph-name="three" horiz-adv-x="586" unicode="3"/>
<glyph d="M393 0v167h-343l-10 65l341 455h90v-449h103v-71h-103v-167h-78zM129 238h264v355z" glyph-name="four" horiz-adv-x="623" unicode="4"/>
<glyph d="M298 -12q-147 1 -242 109l51 57q88 -95 194 -96q89 0 135 65q27 39 27 88q0 83 -69 124q-42 24 -95 24q-82 -1 -153 -53l-57 28l10 353h406v-74h-330l-7 -231q69 46 147 46q115 0 179 -75q48 -57 48 -139q0 -117 -89 -180q-65 -46 -155 -46z" glyph-name="five" horiz-adv-x="599" unicode="5"/>
<glyph d="M333 429q115 0 180 -74q50 -58 50 -140q0 -107 -81 -173q-67 -54 -161 -54q-177 0 -236 172q-25 75 -25 173q0 161 87 268q80 97 191 98q110 -1 195 -82l-43 -61q-70 68 -144 72h-10q-85 0 -142 -89q-55 -86 -55 -206v-9q56 89 161 103q17 2 33 2zM320 55q90 0 137 70 q27 40 27 86q0 88 -73 129q-41 22 -92 22q-93 0 -143 -67q-20 -28 -28 -61q26 -138 119 -170q25 -9 53 -9z" glyph-name="six" horiz-adv-x="623" unicode="6"/>
<glyph d="M138 0l293 613h-372v74h465v-59l-296 -628h-90z" glyph-name="seven" horiz-adv-x="600" unicode="7"/>
<glyph d="M303 -12q-130 0 -201 72q-50 51 -50 120q0 92 93 148q27 17 59 27q-127 49 -134 152v10q0 93 90 145q63 37 143 37q112 0 181 -64q53 -50 53 -119q0 -102 -114 -153l-20 -8q102 -35 137 -111q14 -31 14 -64q0 -99 -93 -153q-67 -39 -158 -39zM303 386q74 4 121 48 q33 33 34 75q0 62 -63 97q-41 22 -92 22q-85 0 -129 -53q-25 -30 -25 -66q0 -70 80 -105q36 -15 74 -18zM303 59q95 0 144 55q28 31 28 71q0 68 -79 108q-46 23 -93 25q-71 -2 -125 -45q-46 -38 -47 -88q0 -67 70 -103q45 -23 102 -23z" glyph-name="eight" horiz-adv-x="606" unicode="8"/>
<glyph d="M302 699q177 0 236 -172q25 -75 25 -173q0 -161 -87 -268q-80 -97 -191 -98q-110 1 -195 82l43 61q70 -68 144 -72h10q85 0 142 89q55 86 55 206v9q-56 -89 -161 -103q-17 -2 -33 -2q-115 0 -180 74q-50 58 -50 140q0 107 81 173q67 54 161 54zM304 325q93 0 143 67 q20 28 28 61q-26 138 -119 170q-25 9 -53 9q-90 0 -137 -70q-27 -40 -27 -86q0 -88 73 -129q41 -22 92 -22z" glyph-name="nine" horiz-adv-x="623" unicode="9"/>
<glyph d="M128 403q-35 0 -50 32q-5 11 -5 23q0 32 30 47q12 6 25 6q33 0 48 -30q5 -12 5 -23q0 -35 -31 -50q-11 -5 -22 -5zM128 -12q-35 0 -50 32q-5 11 -5 23q0 32 30 47q12 6 25 6q33 0 48 -30q5 -12 5 -23q0 -35 -31 -50q-11 -5 -22 -5z" glyph-name="colon" horiz-adv-x="253" unicode=":"/>
<glyph d="M132 403q-35 0 -50 32q-5 11 -5 23q0 32 30 47q12 6 25 6q33 0 48 -30q5 -12 5 -23q0 -35 -31 -50q-11 -5 -22 -5zM116 -133l-37 28q40 46 52 93q-34 0 -49 32q-5 11 -5 23q0 34 31 48q12 5 24 5q43 0 57 -48q4 -15 4 -32q0 -45 -46 -108q-13 -19 -31 -41z" glyph-name="semicolon" horiz-adv-x="264" unicode=";"/>
<glyph d="M510 88l-455 226v59l455 226v-70l-381 -185l381 -185v-71z" glyph-name="less" horiz-adv-x="586" unicode="&lt;"/>
<glyph d="M67 407v74h459v-74h-459zM67 187v74h459v-74h-459z" glyph-name="equal" horiz-adv-x="593" unicode="="/>
<glyph d="M76 88v71l381 185l-381 185v70l455 -226v-59z" glyph-name="greater" horiz-adv-x="586" unicode="&gt;"/>
<glyph d="M184 193v187q120 10 174 69q26 28 26 60q0 60 -52 96q-36 23 -83 23q-94 -1 -171 -95l-51 51q93 114 226 115q113 0 173 -75q37 -47 37 -108q0 -83 -82 -143q-51 -37 -118 -52v-128h-79zM224 -12q-35 0 -50 32q-5 11 -5 23q0 32 30 47q12 6 25 6q33 0 48 -30q5 -12 5 -23 q0 -35 -31 -50q-11 -5 -22 -5z" glyph-name="question" horiz-adv-x="507" unicode="?"/>
<glyph d="M426 -116q-147 0 -257 100q-108 98 -123 238q-2 19 -2 37q0 156 107 275q103 115 253 137q29 4 58 4q146 0 256 -98q105 -94 118 -228q1 -15 1 -30q0 -143 -85 -208q-44 -33 -95 -33q-80 0 -108 63q-4 11 -7 23q-67 -85 -162 -86q-91 0 -137 70q-29 44 -29 103 q0 108 79 184q70 66 154 66q93 0 135 -77q1 -3 2 -4l13 66l67 -5q-53 -272 -53 -290q0 -53 47 -64q10 -2 19 -2q56 0 92 58q32 53 32 136q0 126 -95 220q-96 93 -230 100h-16q-145 0 -254 -101q-107 -99 -122 -240q-2 -19 -2 -38q0 -134 96 -233q95 -99 229 -107 q11 -1 21 -1q110 0 204 54q6 4 12 7l18 -27q-103 -65 -219 -69h-17zM398 137q90 0 136 83q23 41 28 91q10 103 -66 126q-18 5 -40 5q-77 0 -129 -67q-41 -54 -41 -120q0 -77 58 -106q25 -12 54 -12z" glyph-name="at" horiz-adv-x="881" unicode="@"/>
<glyph d="M638 0l-69 156h-383l-69 -156h-85l303 687h85l303 -687h-85zM218 230h319l-159 361z" glyph-name="A" horiz-adv-x="755" unicode="A"/>
<glyph d="M94 0v687h315q104 0 157 -71q32 -43 32 -100q0 -85 -75 -136q-11 -8 -23 -15q116 -59 124 -163q1 -8 1 -14q0 -98 -78 -152q-54 -36 -126 -36h-327zM172 396h217q78 0 113 53q17 26 17 57q0 64 -59 94q-32 16 -71 16h-217v-220zM172 71h229q84 0 124 58q21 31 21 69 q0 71 -62 107q-37 20 -83 20h-229v-254z" glyph-name="B" horiz-adv-x="682" unicode="B"/>
<glyph d="M404 -12q-136 0 -238 97q-102 96 -113 231q-1 15 -1 28q0 138 97 242q94 101 227 112q15 1 28 1q137 0 238 -96l9 -9l-53 -54q-83 86 -194 87q-112 0 -194 -86q-79 -84 -79 -197q0 -117 83 -202q81 -82 190 -82q112 1 194 87l53 -54q-98 -98 -231 -105h-16z" glyph-name="C" horiz-adv-x="680" unicode="C"/>
<glyph d="M94 0v687h232q172 0 277 -105q95 -96 95 -238q0 -155 -110 -252q-104 -92 -262 -92h-232zM172 71h154q144 0 227 92q66 75 66 181q0 130 -96 208q-80 64 -197 64h-154v-545z" glyph-name="D" horiz-adv-x="762" unicode="D"/>
<glyph d="M572 613h-414v-226h373v-74h-373v-239h414v-74h-493v687h493v-74z" glyph-name="E" horiz-adv-x="627" unicode="E"/>
<glyph d="M572 613h-414v-226h373v-74h-373v-313h-79v687h493v-74z" glyph-name="F" horiz-adv-x="609" unicode="F"/>
<glyph d="M396 288v74h275v-269q-74 -74 -194 -98q-38 -7 -73 -7q-136 0 -238 97q-102 96 -113 231q-1 15 -1 28q0 138 97 242q94 101 227 112q15 1 28 1q116 0 214 -63q31 -20 53 -42l-53 -54q-58 62 -159 81q-29 6 -55 6q-112 0 -194 -86q-79 -84 -79 -197q0 -117 83 -202 q81 -82 190 -82q92 0 173 53q9 6 16 11v164h-197z" glyph-name="G" horiz-adv-x="745" unicode="G"/>
<glyph d="M562 687h78v-687h-78v313h-405v-313h-78v687h78v-300h405v300z" glyph-name="H" horiz-adv-x="719" unicode="H"/>
<glyph d="M79 0v687h78v-687h-78z" glyph-name="I" horiz-adv-x="236" unicode="I"/>
<glyph d="M237 -12q-89 0 -163 61q-30 25 -48 53l57 56q29 -62 96 -88q29 -11 58 -11q76 0 115 67q24 43 24 98v463h78v-463q0 -122 -81 -189q-57 -47 -136 -47z" glyph-name="J" horiz-adv-x="540" unicode="J"/>
<glyph d="M92 0v687h78v-380l348 380h103l-289 -314l308 -373h-101l-261 320l-108 -114v-206h-78z" glyph-name="K" horiz-adv-x="660" unicode="K"/>
<glyph d="M146 74h375v-74h-453v687h78v-613z" glyph-name="L" horiz-adv-x="555" unicode="L"/>
<glyph d="M94 0v687h78l255 -479l255 479h78v-687h-78v519l-255 -479l-255 479v-519h-78z" glyph-name="M" horiz-adv-x="854" unicode="M"/>
<glyph d="M94 0v687h78l426 -559v559h78v-687h-78l-426 559v-559h-78z" glyph-name="N" horiz-adv-x="770" unicode="N"/>
<glyph d="M404 -12q-136 0 -238 97q-102 96 -113 231q-1 15 -1 28q0 138 97 242q94 101 227 112q15 1 28 1q138 0 240 -98q101 -96 110 -233q1 -12 1 -24q0 -139 -96 -243q-95 -102 -229 -112q-14 -1 -26 -1zM404 60q112 0 193 85q79 85 79 199q0 117 -83 202q-81 81 -189 81 q-112 0 -194 -86q-79 -84 -79 -197q0 -117 83 -202q81 -82 190 -82z" glyph-name="O" horiz-adv-x="807" unicode="O"/>
<glyph d="M79 0v687h279q122 0 196 -77q57 -60 57 -143q0 -106 -87 -169q-70 -51 -166 -51h-201v-247h-78zM157 321h187q120 0 167 71q21 33 21 75q0 90 -86 127q-45 19 -102 19h-187v-292z" glyph-name="P" horiz-adv-x="644" unicode="P"/>
<glyph d="M755 344q-1 -121 -77 -219l77 -67l-50 -58l-80 70q-99 -82 -221 -82q-136 0 -238 97q-102 96 -113 231q-1 15 -1 28q0 138 97 242q94 101 227 112q15 1 28 1q138 0 240 -98q101 -96 110 -233q1 -12 1 -24zM404 60q91 1 164 59l-107 93l50 58l110 -95q55 77 55 169 q0 117 -83 202q-81 81 -189 81q-112 0 -194 -86q-79 -84 -79 -197q0 -117 83 -202q81 -82 190 -82z" glyph-name="Q" horiz-adv-x="807" unicode="Q"/>
<glyph d="M611 467q0 -106 -87 -169q-44 -32 -100 -44l178 -254h-89l-174 247h-182v-247h-78v687h279q122 0 196 -77q57 -60 57 -143zM157 613v-292h187q120 0 167 71q21 33 21 75q0 90 -86 127q-45 19 -102 19h-187z" glyph-name="R" horiz-adv-x="650" unicode="R"/>
<glyph d="M317 -11q-161 1 -271 109l49 61q100 -99 225 -99q103 0 144 64q16 26 16 56q0 63 -74 96q-39 17 -111 34q-144 33 -190 89q-35 42 -35 105q0 92 78 149q64 47 152 47q135 -1 241 -98l-48 -61q-92 88 -197 88q-80 0 -123 -54q-24 -30 -24 -65q0 -58 71 -89q37 -17 114 -35 q152 -36 198 -104q27 -40 27 -95q0 -103 -85 -158q-63 -40 -157 -40z" glyph-name="S" horiz-adv-x="613" unicode="S"/>
<glyph d="M276 0v613h-231v74h540v-74h-231v-613h-78z" glyph-name="T" horiz-adv-x="630" unicode="T"/>
<glyph d="M373 -12q-137 0 -219 97q-68 82 -68 200v402h78v-402q0 -117 79 -181q55 -45 130 -45q105 0 165 81q44 61 44 145v402h78v-402q0 -143 -95 -228q-79 -69 -192 -69z" glyph-name="U" horiz-adv-x="746" unicode="U"/>
<glyph d="M638 687h85l-303 -687h-85l-303 687h85l261 -591z" glyph-name="V" horiz-adv-x="755" unicode="V"/>
<glyph d="M272 0l-235 687h88l190 -556l182 556h87l182 -556l190 556h88l-235 -687h-77l-191 585l-192 -585h-77z" glyph-name="W" horiz-adv-x="1081" unicode="W"/>
<glyph d="M659 687l-263 -343l263 -344h-96l-215 281l-215 -281h-95l263 343l-263 344h96l215 -281l215 281h95z" glyph-name="X" horiz-adv-x="697" unicode="X"/>
<glyph d="M295 0v280l-277 407h97l221 -333l223 333h94l-276 -407v-280h-82z" glyph-name="Y" horiz-adv-x="671" unicode="Y"/>
<glyph d="M58 0v62l414 551h-407v74h514v-62l-415 -551h419v-74h-525z" glyph-name="Z" horiz-adv-x="639" unicode="Z"/>
<glyph d="M81 -115v849h236v-57h-170v-735h170v-57h-236z" glyph-name="bracketleft" horiz-adv-x="366" unicode="["/>
<glyph d="M346 -74l-351 817h85l351 -817h-85z" glyph-name="backslash" horiz-adv-x="415" unicode="\"/>
<glyph d="M49 -115v57h170v735h-170v57h236v-849h-236z" glyph-name="bracketright" horiz-adv-x="366" unicode="]"/>
<glyph d="M54 413l162 274h59l161 -274h-65l-126 219l-127 -219h-64z" glyph-name="asciicircum" horiz-adv-x="490" unicode="^"/>
<glyph d="M-2 -142v67h596v-67h-596z" glyph-name="underscore" unicode="_"/>
<glyph d="M205 576l-142 126l79 18l121 -144h-58z" glyph-name="grave" horiz-adv-x="326" unicode="`"/>
<glyph d="M286 529q141 0 190 -109q20 -46 20 -105v-315h-75v81q-41 -67 -132 -87q-26 -6 -50 -6q-107 0 -159 69q-30 41 -30 96q0 89 79 138q54 34 124 34q78 0 168 -29v19q0 116 -87 143q-24 7 -53 7q-60 0 -151 -47l-30 61q100 50 186 50zM252 54q81 0 133 49q27 26 36 59v79 q-76 21 -156 21q-78 0 -119 -47q-23 -27 -23 -59q0 -64 64 -90q30 -12 65 -12z" glyph-name="a" horiz-adv-x="573" unicode="a"/>
<glyph d="M346 529q112 0 180 -88q58 -75 58 -182q0 -134 -84 -212q-65 -59 -154 -59q-117 0 -180 96q-5 7 -8 13v-97h-75v699h75v-279q57 100 170 108q9 1 18 1zM332 55q89 0 139 77q34 54 34 127q0 111 -71 168q-44 35 -102 35q-92 0 -141 -78q-33 -53 -33 -125q0 -110 70 -168 q45 -36 104 -36z" glyph-name="b" horiz-adv-x="638" unicode="b"/>
<glyph d="M316 -12q-111 0 -191 83q-77 81 -77 188q0 113 83 193q79 77 185 77q105 -1 184 -76l-52 -51q-56 59 -132 60q-84 0 -141 -70q-48 -58 -48 -133q0 -93 67 -155q54 -49 122 -49q79 1 135 63l52 -51q-80 -79 -187 -79z" glyph-name="c" horiz-adv-x="542" unicode="c"/>
<glyph d="M480 699h75v-699h-75v97q-57 -100 -170 -108q-9 -1 -18 -1q-112 0 -180 88q-58 76 -58 183q0 134 85 211q65 59 153 59q117 0 180 -96q5 -7 8 -13v279zM306 55q91 0 140 78q34 54 34 126q0 111 -71 168q-45 35 -103 35q-90 0 -139 -77q-34 -53 -34 -126q0 -110 70 -168 q45 -36 103 -36z" glyph-name="d" horiz-adv-x="638" unicode="d"/>
<glyph d="M309 55q76 0 138 41q15 10 25 21l46 -49q-50 -54 -149 -74q-31 -6 -59 -6q-109 0 -186 80q-76 79 -76 192q0 123 85 202q73 67 170 67q142 0 206 -120q39 -74 39 -179h-423q11 -99 85 -147q44 -28 99 -28zM306 462q-92 0 -144 -73q-28 -40 -36 -92h348q-12 110 -91 149 q-35 16 -77 16z" glyph-name="e" horiz-adv-x="595" unicode="e"/>
<glyph d="M193 588v-71h127v-67h-127v-450h-75v450h-81v67h81v71q0 77 58 113q30 19 68 19q54 -1 96 -33l-37 -55q-20 21 -54 21t-50 -35q-6 -14 -6 -30z" glyph-name="f" horiz-adv-x="351" unicode="f"/>
<glyph d="M478 517h75v-462q0 -113 -89 -178q-69 -49 -165 -49q-115 0 -195 58q-8 6 -14 11l33 59q68 -58 166 -61q133 0 174 88q15 32 15 72v84q-60 -95 -175 -101h-13q-119 0 -187 87q-51 66 -51 159q0 124 86 194q64 51 152 51q118 0 183 -93q3 -5 5 -8v89zM304 105q95 0 143 73 q31 46 31 106q0 96 -70 146q-45 32 -104 32q-92 0 -141 -71q-32 -46 -32 -107q0 -97 70 -148q45 -31 103 -31z" glyph-name="g" horiz-adv-x="636" unicode="g"/>
<glyph d="M322 529q102 0 157 -77q37 -52 37 -123v-329h-75v319q0 84 -59 123q-31 20 -70 20q-79 0 -128 -54q-32 -36 -32 -79v-329h-75v699h75v-265q34 63 111 86q30 9 59 9z" glyph-name="h" unicode="h"/>
<glyph d="M113 611q-33 0 -46 30q-4 10 -4 20q0 30 28 44q11 5 22 5q31 0 45 -29q4 -10 4 -20q0 -32 -29 -46q-10 -4 -20 -4zM75 0v517h75v-517h-75z" glyph-name="i" horiz-adv-x="225" unicode="i"/>
<glyph d="M113 611q-33 0 -46 30q-4 10 -4 20q0 30 28 44q11 5 22 5q31 0 45 -29q4 -10 4 -20q0 -32 -29 -46q-10 -4 -20 -4zM24 -178q-45 0 -81 16l12 62q30 -11 64 -11q39 0 52 39q4 13 4 26v563h75v-563q0 -77 -58 -113q-30 -19 -68 -19z" glyph-name="j" horiz-adv-x="225" unicode="j"/>
<glyph d="M529 517l-233 -237l220 -280h-94l-179 229l-93 -92v-137h-75v699h75v-468l283 286h96z" glyph-name="k" horiz-adv-x="543" unicode="k"/>
<glyph d="M76 0v699h75v-699h-75z" glyph-name="l" horiz-adv-x="227" unicode="l"/>
<glyph d="M635 529q97 0 149 -77q35 -52 35 -123v-329h-75v319q0 86 -57 124q-28 19 -62 19q-81 0 -119 -60q-21 -32 -21 -73v-329h-75v319q0 86 -57 124q-28 19 -62 19q-81 0 -119 -60q-21 -32 -21 -73v-329h-75v517h75v-76q33 69 113 85q19 3 37 3q97 0 149 -76q11 -17 18 -34 q21 68 95 97q34 13 72 13z" glyph-name="m" horiz-adv-x="895" unicode="m"/>
<glyph d="M322 529q102 0 157 -77q37 -52 37 -123v-329h-75v319q0 84 -59 123q-31 20 -70 20q-79 0 -128 -54q-32 -36 -32 -79v-329h-75v517h75v-83q34 63 111 86q30 9 59 9z" glyph-name="n" unicode="n"/>
<glyph d="M316 -12q-111 0 -191 83q-77 81 -77 188q0 113 83 193q79 77 185 77q111 0 191 -83q76 -80 76 -187q0 -112 -82 -193q-79 -78 -185 -78zM316 55q84 0 141 71q47 58 47 133q0 92 -67 154q-54 49 -121 49q-84 0 -141 -70q-48 -58 -48 -133q0 -93 67 -155q54 -49 122 -49z " glyph-name="o" horiz-adv-x="631" unicode="o"/>
<glyph d="M346 529q112 0 180 -88q58 -75 58 -182q0 -134 -84 -212q-65 -59 -154 -59q-117 0 -180 96q-5 7 -8 13v-269h-75v689h75v-97q57 100 170 108q9 1 18 1zM332 55q89 0 139 77q34 54 34 127q0 111 -71 168q-44 35 -102 35q-92 0 -141 -78q-33 -53 -33 -125q0 -110 70 -168 q45 -36 104 -36z" glyph-name="p" horiz-adv-x="638" unicode="p"/>
<glyph d="M480 517h75v-689h-75v269q-57 -100 -170 -108q-9 -1 -18 -1q-112 0 -180 88q-58 76 -58 183q0 134 85 211q65 59 153 59q117 0 180 -96q5 -7 8 -13v97zM306 55q91 0 140 78q34 54 34 126q0 111 -71 168q-45 35 -103 35q-90 0 -139 -77q-34 -53 -34 -126q0 -110 70 -168 q45 -36 103 -36z" glyph-name="q" horiz-adv-x="638" unicode="q"/>
<glyph d="M158 416q37 81 134 105q32 8 66 8v-67q-109 0 -165 -71q-35 -44 -35 -102v-289h-75v517h75v-101z" glyph-name="r" horiz-adv-x="386" unicode="r"/>
<glyph d="M259 -12q-112 0 -205 70q-5 4 -9 7l39 55q90 -65 175 -65q79 0 105 47q9 16 9 34q0 47 -66 73q-21 9 -64 21q-126 36 -157 86q-16 26 -16 61q0 87 78 129q45 23 103 23q97 -1 185 -58l-36 -58q-78 49 -149 49q-74 0 -98 -44q-8 -15 -8 -32q0 -35 41 -56q25 -12 93 -34 q96 -30 129 -60q40 -36 40 -92q0 -86 -78 -130q-49 -26 -111 -26z" glyph-name="s" horiz-adv-x="496" unicode="s"/>
<glyph d="M303 76l37 -55q-43 -33 -96 -33q-73 0 -108 60q-18 32 -18 72v330h-81v67h81v142h75v-142h127v-67h-127v-330q0 -43 34 -60q11 -5 22 -5q35 1 54 21z" glyph-name="t" horiz-adv-x="370" unicode="t"/>
<glyph d="M440 517h75v-517h-75v83q-34 -63 -111 -86q-30 -9 -59 -9q-102 0 -157 77q-37 52 -37 123v329h75v-319q0 -84 59 -123q31 -20 70 -20q79 0 128 54q32 36 32 79v329z" glyph-name="u" unicode="u"/>
<glyph d="M247 0l-220 517h84l172 -429l169 429h84l-217 -517h-72z" glyph-name="v" horiz-adv-x="563" unicode="v"/>
<glyph d="M208 0l-173 517h80l129 -417l141 417h65l141 -417l129 417h80l-174 -517h-71l-137 413l-139 -413h-71z" glyph-name="w" horiz-adv-x="833" unicode="w"/>
<glyph d="M519 0h-88l-155 206l-156 -206h-88l200 264l-192 253h88l148 -195l147 195h88l-191 -253z" glyph-name="x" horiz-adv-x="551" unicode="x"/>
<glyph d="M153 -180q-45 0 -82 17l18 64q27 -13 61 -13q46 0 72 41q2 3 3 5l30 64l-225 519h83l181 -430l171 430h81l-236 -575q-43 -105 -127 -119q-15 -3 -30 -3z" glyph-name="y" horiz-adv-x="593" unicode="y"/>
<glyph d="M54 0v59l305 387h-299v71h400v-59l-306 -387h308v-71h-408z" glyph-name="z" horiz-adv-x="514" unicode="z"/>
<glyph d="M342 -166q-141 15 -180 77q-21 35 -21 92v141q0 72 -50 88q-20 6 -48 6v55q78 0 93 53q5 18 5 42v140q0 93 61 130q47 29 140 39l6 -53q-99 -15 -123 -45q-19 -24 -19 -75l1 -144q-1 -88 -75 -114q73 -33 75 -115l-1 -143q0 -64 31 -87q29 -21 111 -34z" glyph-name="braceleft" horiz-adv-x="394" unicode="{"/>
<glyph d="M109 -74v817h60v-817h-60z" glyph-name="bar" horiz-adv-x="278" unicode="|"/>
<glyph d="M52 -166l-6 53q98 15 123 45q19 24 19 76l-1 143q0 86 71 114q3 0 4 1q-74 27 -75 114l1 144q0 63 -30 86q-29 21 -112 34l6 53q141 -16 180 -77q21 -35 21 -92v-140q0 -73 52 -89q19 -6 46 -6v-55q-77 0 -92 -50q-6 -19 -6 -44v-141q0 -93 -61 -131q-47 -28 -140 -38z " glyph-name="braceright" horiz-adv-x="394" unicode="}"/>
<glyph d="M287 300q-32 0 -74 36q-37 29 -55 30q-38 0 -50 -66v-2l-46 7q17 118 96 119q32 0 74 -36q37 -29 55 -30q38 0 50 66v2l46 -7q-17 -118 -96 -119z" glyph-name="asciitilde" horiz-adv-x="445" unicode="~"/>
<glyph d="M135 529q35 0 50 -32q5 -11 5 -23q0 -32 -30 -47q-12 -6 -25 -6q-33 0 -48 30q-5 12 -5 23q0 35 31 50q11 5 22 5zM161 324l19 -494h-92l20 494h53z" glyph-name="exclamdown" horiz-adv-x="273" unicode="¡"/>
<glyph d="M503 67q-68 -67 -161 -78v-63h-78v67q-104 22 -167 112q-49 71 -49 154q0 113 83 193q58 56 133 72v65h78v-61q91 -11 158 -75l-52 -51q-45 49 -106 58v-403q63 11 109 61zM127 259q0 -94 68 -156q32 -28 69 -40v391q-76 -24 -114 -100q-23 -45 -23 -95z" glyph-name="cent" horiz-adv-x="542" unicode="¢"/>
<glyph d="M198 74h375v-74h-518v38l65 36v187h-62v67h62v135q0 122 81 189q57 47 136 47q100 0 169 -60q28 -25 42 -54l-57 -56q-17 58 -83 85q-34 14 -71 14q-76 0 -115 -67q-24 -43 -24 -98v-135h202v-67h-202v-187z" glyph-name="sterling" horiz-adv-x="619" unicode="£"/>
<glyph d="M653 687l-243 -358h174v-67h-207v-80h207v-67h-207v-115h-82v115h-207v67h207v80h-207v67h174l-244 358h97l221 -333l223 333h94z" glyph-name="yen" horiz-adv-x="671" unicode="¥"/>
<glyph d="M109 597q-31 0 -43 29q-3 9 -3 17q0 29 27 42q10 4 19 4q29 0 42 -28q4 -9 4 -18q0 -30 -28 -42q-9 -4 -18 -4zM301 597q-31 0 -43 29q-3 9 -3 17q0 29 27 42q10 4 19 4q29 0 42 -28q4 -9 4 -18q0 -30 -28 -42q-9 -4 -18 -4z" glyph-name="dieresis" horiz-adv-x="410" unicode="¨"/>
<glyph d="M63 594v55h310v-55h-310z" glyph-name="macron" horiz-adv-x="436" unicode="¯"/>
<glyph d="M63 576l121 144l79 -18l-142 -126h-58z" glyph-name="acute" horiz-adv-x="326" unicode="´"/>
<glyph d="M180 -45q47 0 63 -38q6 -14 6 -28q0 -51 -50 -72q-23 -9 -48 -9q-53 1 -88 28l19 42q29 -23 65 -23q38 0 48 27q2 6 2 11q-6 31 -39 34q-20 -1 -34 -11l-16 17l33 78h52l-24 -57q5 1 11 1z" glyph-name="cedilla" horiz-adv-x="312" unicode="¸"/>
<glyph d="M283 529q35 0 50 -32q5 -11 5 -23q0 -32 -30 -47q-12 -6 -25 -6q-33 0 -48 30q-5 12 -5 23q0 35 31 50q11 5 22 5zM323 324v-187q-120 -10 -174 -69q-26 -28 -26 -60q0 -60 52 -96q36 -23 83 -23q94 1 171 95l51 -51q-93 -114 -226 -115q-113 0 -173 75q-37 47 -37 108 q0 83 82 143q51 37 118 52v128h79z" glyph-name="questiondown" horiz-adv-x="507" unicode="¿"/>
<glyph d="M408 746h-58l-142 126l79 18zM638 0l-69 156h-383l-69 -156h-85l303 687h85l303 -687h-85zM218 230h319l-159 361z" glyph-name="Agrave" horiz-adv-x="755" unicode="À"/>
<glyph d="M547 872l-142 -126h-58l121 144zM638 0l-69 156h-383l-69 -156h-85l303 687h85l303 -687h-85zM218 230h319l-159 361z" glyph-name="Aacute" horiz-adv-x="755" unicode="Á"/>
<glyph d="M377 832l-78 -86h-57l100 137h70l102 -137h-58zM638 0l-69 156h-383l-69 -156h-85l303 687h85l303 -687h-85zM218 230h319l-159 361z" glyph-name="Acircumflex" horiz-adv-x="755" unicode="Â"/>
<glyph d="M312 811q-38 0 -50 -66v-2l-46 7q17 118 96 119q32 0 74 -36q37 -29 55 -30q38 0 50 66v2l46 -7q-17 -118 -96 -119q-32 0 -74 36q-37 29 -55 30zM638 0l-69 156h-383l-69 -156h-85l303 687h85l303 -687h-85zM218 230h319l-159 361z" glyph-name="Atilde" horiz-adv-x="755" unicode="Ã"/>
<glyph d="M281 767q-31 0 -43 29q-3 9 -3 17q0 29 27 42q10 4 19 4q29 0 42 -28q4 -9 4 -18q0 -30 -28 -42q-9 -4 -18 -4zM473 767q-31 0 -43 29q-3 9 -3 17q0 29 27 42q10 4 19 4q29 0 42 -28q4 -9 4 -18q0 -30 -28 -42q-9 -4 -18 -4zM638 0l-69 156h-383l-69 -156h-85l303 687h85 l303 -687h-85zM218 230h319l-159 361z" glyph-name="Adieresis" horiz-adv-x="755" unicode="Ä"/>
<glyph d="M377 759q-56 0 -87 47q-16 26 -16 56q0 56 47 87q26 16 56 16q56 0 87 -47q16 -26 16 -56q0 -56 -47 -87q-26 -16 -56 -16zM377 921q-35 0 -52 -32q-7 -13 -7 -27q0 -35 32 -52q13 -7 27 -7q35 0 52 32q7 13 7 27q0 35 -32 52q-13 7 -27 7zM638 0l-69 156h-383l-69 -156 h-85l303 687h85l303 -687h-85zM218 230h319l-159 361z" glyph-name="Aring" horiz-adv-x="755" unicode="Å"/>
<glyph d="M969 613h-414v-226h373v-74h-373v-239h414v-74h-493v156h-264l-90 -156h-90l396 687h541v-74zM255 230h221v383z" glyph-name="AE" horiz-adv-x="1024" unicode="Æ"/>
<glyph d="M651 93q-98 -97 -230 -105l-14 -34q5 1 11 1q47 0 63 -38q6 -14 6 -28q0 -51 -50 -72q-23 -9 -48 -9q-53 1 -88 28l19 42q29 -23 65 -23q38 0 48 27q2 6 2 11q-6 31 -39 34q-20 -1 -34 -11l-16 17l24 57q-132 14 -225 116q-93 104 -93 238q0 138 97 242q94 101 227 112 q15 1 28 1q137 0 238 -96l9 -9l-53 -54q-83 86 -194 87q-112 0 -194 -86q-79 -84 -79 -197q0 -117 83 -202q81 -82 190 -82q112 1 194 87z" glyph-name="Ccedilla" horiz-adv-x="680" unicode="Ç"/>
<glyph d="M396 746h-58l-142 126l79 18zM572 613h-414v-226h373v-74h-373v-239h414v-74h-493v687h493v-74z" glyph-name="Egrave" horiz-adv-x="627" unicode="È"/>
<glyph d="M446 872l-142 -126h-58l121 144zM572 613h-414v-226h373v-74h-373v-239h414v-74h-493v687h493v-74z" glyph-name="Eacute" horiz-adv-x="627" unicode="É"/>
<glyph d="M326 832l-78 -86h-57l100 137h70l102 -137h-58zM572 613h-414v-226h373v-74h-373v-239h414v-74h-493v687h493v-74z" glyph-name="Ecircumflex" horiz-adv-x="627" unicode="Ê"/>
<glyph d="M230 767q-31 0 -43 29q-3 9 -3 17q0 29 27 42q10 4 19 4q29 0 42 -28q4 -9 4 -18q0 -30 -28 -42q-9 -4 -18 -4zM422 767q-31 0 -43 29q-3 9 -3 17q0 29 27 42q10 4 19 4q29 0 42 -28q4 -9 4 -18q0 -30 -28 -42q-9 -4 -18 -4zM572 613h-414v-226h373v-74h-373v-239h414 v-74h-493v687h493v-74z" glyph-name="Edieresis" horiz-adv-x="627" unicode="Ë"/>
<glyph d="M90 746l-142 126l79 18l121 -144h-58zM79 0v687h78v-687h-78z" glyph-name="Igrave" horiz-adv-x="236" unicode="Ì"/>
<glyph d="M88 746l121 144l79 -18l-142 -126h-58zM79 0v687h78v-687h-78z" glyph-name="Iacute" horiz-adv-x="236" unicode="Í"/>
<glyph d="M-17 746l100 137h70l102 -137h-58l-79 86l-78 -86h-57zM79 0v687h78v-687h-78z" glyph-name="Icircumflex" horiz-adv-x="236" unicode="Î"/>
<glyph d="M22 767q-31 0 -43 29q-3 9 -3 17q0 29 27 42q10 4 19 4q29 0 42 -28q4 -9 4 -18q0 -30 -28 -42q-9 -4 -18 -4zM214 767q-31 0 -43 29q-3 9 -3 17q0 29 27 42q10 4 19 4q29 0 42 -28q4 -9 4 -18q0 -30 -28 -42q-9 -4 -18 -4zM79 0v687h78v-687h-78z" glyph-name="Idieresis" horiz-adv-x="236" unicode="Ï"/>
<glyph d="M343 687q172 0 277 -105q95 -96 95 -238q0 -155 -110 -252q-104 -92 -262 -92h-232v313h-69v74h69v300h232zM343 71q144 0 227 92q66 75 66 181q0 130 -96 208q-80 64 -197 64h-154v-229h202l-1 -74h-201v-242h154z" glyph-name="Eth" horiz-adv-x="779" unicode="Ð"/>
<glyph d="M449 745q-32 0 -74 36q-37 29 -55 30q-38 0 -50 -66v-2l-46 7q17 118 96 119q32 0 74 -36q37 -29 55 -30q38 0 50 66v2l46 -7q-17 -118 -96 -119zM94 0v687h78l426 -559v559h78v-687h-78l-426 559v-559h-78z" glyph-name="Ntilde" horiz-adv-x="770" unicode="Ñ"/>
<glyph d="M378 746l-142 126l79 18l121 -144h-58zM404 -12q-136 0 -238 97q-102 96 -113 231q-1 15 -1 28q0 138 97 242q94 101 227 112q15 1 28 1q138 0 240 -98q101 -96 110 -233q1 -12 1 -24q0 -139 -96 -243q-95 -102 -229 -112q-14 -1 -26 -1zM404 60q112 0 193 85 q79 85 79 199q0 117 -83 202q-81 81 -189 81q-112 0 -194 -86q-79 -84 -79 -197q0 -117 83 -202q81 -82 190 -82z" glyph-name="Ograve" horiz-adv-x="807" unicode="Ò"/>
<glyph d="M374 746l121 144l79 -18l-142 -126h-58zM404 -12q-136 0 -238 97q-102 96 -113 231q-1 15 -1 28q0 138 97 242q94 101 227 112q15 1 28 1q138 0 240 -98q101 -96 110 -233q1 -12 1 -24q0 -139 -96 -243q-95 -102 -229 -112q-14 -1 -26 -1zM404 60q112 0 193 85 q79 85 79 199q0 117 -83 202q-81 81 -189 81q-112 0 -194 -86q-79 -84 -79 -197q0 -117 83 -202q81 -82 190 -82z" glyph-name="Oacute" horiz-adv-x="807" unicode="Ó"/>
<glyph d="M269 746l100 137h70l102 -137h-58l-79 86l-78 -86h-57zM404 -12q-136 0 -238 97q-102 96 -113 231q-1 15 -1 28q0 138 97 242q94 101 227 112q15 1 28 1q138 0 240 -98q101 -96 110 -233q1 -12 1 -24q0 -139 -96 -243q-95 -102 -229 -112q-14 -1 -26 -1zM404 60 q112 0 193 85q79 85 79 199q0 117 -83 202q-81 81 -189 81q-112 0 -194 -86q-79 -84 -79 -197q0 -117 83 -202q81 -82 190 -82z" glyph-name="Ocircumflex" horiz-adv-x="807" unicode="Ô"/>
<glyph d="M468 745q-32 0 -74 36q-37 29 -55 30q-38 0 -50 -66v-2l-46 7q17 118 96 119q32 0 74 -36q37 -29 55 -30q38 0 50 66v2l46 -7q-17 -118 -96 -119zM404 -12q-136 0 -238 97q-102 96 -113 231q-1 15 -1 28q0 138 97 242q94 101 227 112q15 1 28 1q138 0 240 -98 q101 -96 110 -233q1 -12 1 -24q0 -139 -96 -243q-95 -102 -229 -112q-14 -1 -26 -1zM404 60q112 0 193 85q79 85 79 199q0 117 -83 202q-81 81 -189 81q-112 0 -194 -86q-79 -84 -79 -197q0 -117 83 -202q81 -82 190 -82z" glyph-name="Otilde" horiz-adv-x="807" unicode="Õ"/>
<glyph d="M308 767q-31 0 -43 29q-3 9 -3 17q0 29 27 42q10 4 19 4q29 0 42 -28q4 -9 4 -18q0 -30 -28 -42q-9 -4 -18 -4zM500 767q-31 0 -43 29q-3 9 -3 17q0 29 27 42q10 4 19 4q29 0 42 -28q4 -9 4 -18q0 -30 -28 -42q-9 -4 -18 -4zM404 -12q-136 0 -238 97q-102 96 -113 231 q-1 15 -1 28q0 138 97 242q94 101 227 112q15 1 28 1q138 0 240 -98q101 -96 110 -233q1 -12 1 -24q0 -139 -96 -243q-95 -102 -229 -112q-14 -1 -26 -1zM404 60q112 0 193 85q79 85 79 199q0 117 -83 202q-81 81 -189 81q-112 0 -194 -86q-79 -84 -79 -197q0 -117 83 -202 q81 -82 190 -82z" glyph-name="Odieresis" horiz-adv-x="807" unicode="Ö"/>
<glyph d="M459 470l-135 -135l135 -136l-53 -53l-135 136l-136 -136l-53 52l136 136l-136 136l53 53l136 -136l136 136z" glyph-name="multiply" horiz-adv-x="541" unicode="×"/>
<glyph d="M659 586q96 -105 96 -242q0 -139 -96 -243q-95 -102 -229 -112q-14 -1 -26 -1q-113 1 -207 70l-51 -58h-85l88 101q-97 104 -97 243q0 138 97 242q94 101 227 112q15 1 28 1q115 -1 207 -70l51 58h85zM131 344q1 -105 68 -186l363 415q-72 54 -158 54q-112 0 -194 -86 q-79 -84 -79 -197zM404 60q112 0 193 85q79 85 79 199q-1 104 -68 185l-362 -415q72 -54 158 -54z" glyph-name="Oslash" horiz-adv-x="807" unicode="Ø"/>
<glyph d="M385 746l-142 126l79 18l121 -144h-58zM373 -12q-137 0 -219 97q-68 82 -68 200v402h78v-402q0 -117 79 -181q55 -45 130 -45q105 0 165 81q44 61 44 145v402h78v-402q0 -143 -95 -228q-79 -69 -192 -69z" glyph-name="Ugrave" horiz-adv-x="746" unicode="Ù"/>
<glyph d="M293 746l121 144l79 -18l-142 -126h-58zM373 -12q-137 0 -219 97q-68 82 -68 200v402h78v-402q0 -117 79 -181q55 -45 130 -45q105 0 165 81q44 61 44 145v402h78v-402q0 -143 -95 -228q-79 -69 -192 -69z" glyph-name="Uacute" horiz-adv-x="746" unicode="Ú"/>
<glyph d="M238 746l100 137h70l102 -137h-58l-79 86l-78 -86h-57zM373 -12q-137 0 -219 97q-68 82 -68 200v402h78v-402q0 -117 79 -181q55 -45 130 -45q105 0 165 81q44 61 44 145v402h78v-402q0 -143 -95 -228q-79 -69 -192 -69z" glyph-name="Ucircumflex" horiz-adv-x="746" unicode="Û"/>
<glyph d="M277 767q-31 0 -43 29q-3 9 -3 17q0 29 27 42q10 4 19 4q29 0 42 -28q4 -9 4 -18q0 -30 -28 -42q-9 -4 -18 -4zM469 767q-31 0 -43 29q-3 9 -3 17q0 29 27 42q10 4 19 4q29 0 42 -28q4 -9 4 -18q0 -30 -28 -42q-9 -4 -18 -4zM373 -12q-137 0 -219 97q-68 82 -68 200v402 h78v-402q0 -117 79 -181q55 -45 130 -45q105 0 165 81q44 61 44 145v402h78v-402q0 -143 -95 -228q-79 -69 -192 -69z" glyph-name="Udieresis" horiz-adv-x="746" unicode="Ü"/>
<glyph d="M256 746l121 144l79 -18l-142 -126h-58zM295 0v280l-277 407h97l221 -333l223 333h94l-276 -407v-280h-82z" glyph-name="Yacute" horiz-adv-x="671" unicode="Ý"/>
<glyph d="M79 0v687h80v-121h199q122 0 196 -77q57 -60 57 -143q0 -106 -87 -169q-70 -51 -166 -51h-201v-126h-78zM157 200h187q120 0 167 71q21 33 21 75q0 90 -86 127q-45 19 -102 19h-187v-292z" glyph-name="Thorn" horiz-adv-x="644" unicode="Þ"/>
<glyph d="M84 0v526q0 94 79 145q55 36 130 36q112 0 171 -73q37 -47 37 -108q-1 -104 -98 -161q116 -59 124 -163q1 -8 1 -14q0 -98 -78 -152q-54 -36 -126 -36h-87v71h67q84 0 124 58q21 31 21 69q0 71 -62 107q-37 20 -83 20h-67v71h55q72 0 110 55q20 30 20 65q0 69 -59 103 q-32 17 -71 17q-76 0 -112 -57q-18 -30 -18 -66v-513h-78z" glyph-name="germandbls" horiz-adv-x="576" unicode="ß"/>
<glyph d="M363 576h-58l-142 126l79 18zM286 529q141 0 190 -109q20 -46 20 -105v-315h-75v81q-41 -67 -132 -87q-26 -6 -50 -6q-107 0 -159 69q-30 41 -30 96q0 89 79 138q54 34 124 34q78 0 168 -29v19q0 116 -87 143q-24 7 -53 7q-60 0 -151 -47l-30 61q100 50 186 50zM252 54 q81 0 133 49q27 26 36 59v79q-76 21 -156 21q-78 0 -119 -47q-23 -27 -23 -59q0 -64 64 -90q30 -12 65 -12z" glyph-name="agrave" horiz-adv-x="573" unicode="à"/>
<glyph d="M413 702l-142 -126h-58l121 144zM286 529q141 0 190 -109q20 -46 20 -105v-315h-75v81q-41 -67 -132 -87q-26 -6 -50 -6q-107 0 -159 69q-30 41 -30 96q0 89 79 138q54 34 124 34q78 0 168 -29v19q0 116 -87 143q-24 7 -53 7q-60 0 -151 -47l-30 61q100 50 186 50z M252 54q81 0 133 49q27 26 36 59v79q-76 21 -156 21q-78 0 -119 -47q-23 -27 -23 -59q0 -64 64 -90q30 -12 65 -12z" glyph-name="aacute" horiz-adv-x="573" unicode="á"/>
<glyph d="M293 662l-78 -86h-57l100 137h70l102 -137h-58zM286 529q141 0 190 -109q20 -46 20 -105v-315h-75v81q-41 -67 -132 -87q-26 -6 -50 -6q-107 0 -159 69q-30 41 -30 96q0 89 79 138q54 34 124 34q78 0 168 -29v19q0 116 -87 143q-24 7 -53 7q-60 0 -151 -47l-30 61 q100 50 186 50zM252 54q81 0 133 49q27 26 36 59v79q-76 21 -156 21q-78 0 -119 -47q-23 -27 -23 -59q0 -64 64 -90q30 -12 65 -12z" glyph-name="acircumflex" horiz-adv-x="573" unicode="â"/>
<glyph d="M228 641q-38 0 -50 -66v-2l-46 7q17 118 96 119q32 0 74 -36q37 -29 55 -30q38 0 50 66v2l46 -7q-17 -118 -96 -119q-32 0 -74 36q-37 29 -55 30zM286 529q141 0 190 -109q20 -46 20 -105v-315h-75v81q-41 -67 -132 -87q-26 -6 -50 -6q-107 0 -159 69q-30 41 -30 96 q0 89 79 138q54 34 124 34q78 0 168 -29v19q0 116 -87 143q-24 7 -53 7q-60 0 -151 -47l-30 61q100 50 186 50zM252 54q81 0 133 49q27 26 36 59v79q-76 21 -156 21q-78 0 -119 -47q-23 -27 -23 -59q0 -64 64 -90q30 -12 65 -12z" glyph-name="atilde" horiz-adv-x="573" unicode="ã"/>
<glyph d="M197 597q-31 0 -43 29q-3 9 -3 17q0 29 27 42q10 4 19 4q29 0 42 -28q4 -9 4 -18q0 -30 -28 -42q-9 -4 -18 -4zM389 597q-31 0 -43 29q-3 9 -3 17q0 29 27 42q10 4 19 4q29 0 42 -28q4 -9 4 -18q0 -30 -28 -42q-9 -4 -18 -4zM286 529q141 0 190 -109q20 -46 20 -105v-315 h-75v81q-41 -67 -132 -87q-26 -6 -50 -6q-107 0 -159 69q-30 41 -30 96q0 89 79 138q54 34 124 34q78 0 168 -29v19q0 116 -87 143q-24 7 -53 7q-60 0 -151 -47l-30 61q100 50 186 50zM252 54q81 0 133 49q27 26 36 59v79q-76 21 -156 21q-78 0 -119 -47q-23 -27 -23 -59 q0 -64 64 -90q30 -12 65 -12z" glyph-name="adieresis" horiz-adv-x="573" unicode="ä"/>
<glyph d="M293 589q-56 0 -87 47q-16 26 -16 56q0 56 47 87q26 16 56 16q56 0 87 -47q16 -26 16 -56q0 -56 -47 -87q-26 -16 -56 -16zM293 751q-35 0 -52 -32q-7 -13 -7 -27q0 -35 32 -52q13 -7 27 -7q35 0 52 32q7 13 7 27q0 35 -32 52q-13 7 -27 7zM286 529q141 0 190 -109 q20 -46 20 -105v-315h-75v81q-41 -67 -132 -87q-26 -6 -50 -6q-107 0 -159 69q-30 41 -30 96q0 89 79 138q54 34 124 34q78 0 168 -29v19q0 116 -87 143q-24 7 -53 7q-60 0 -151 -47l-30 61q100 50 186 50zM252 54q81 0 133 49q27 26 36 59v79q-76 21 -156 21 q-78 0 -119 -47q-23 -27 -23 -59q0 -64 64 -90q30 -12 65 -12z" glyph-name="aring" horiz-adv-x="573" unicode="å"/>
<glyph d="M682 55q76 0 138 41q15 10 25 21l46 -49q-50 -54 -149 -74q-31 -6 -59 -6q-109 0 -186 79q-17 19 -31 40q-51 -82 -147 -109q-35 -10 -70 -10q-137 0 -182 88q-17 34 -17 77q0 89 79 138q54 34 124 34q78 0 168 -29v19q0 116 -87 143q-24 7 -53 7q-60 0 -151 -47l-30 61 q100 50 186 50q138 -1 187 -104q65 88 171 102q16 2 32 2q142 0 206 -120q39 -74 39 -179h-423q11 -99 85 -147q44 -28 99 -28zM679 462q-92 0 -144 -73q-28 -40 -36 -92h348q-12 110 -91 149q-35 16 -77 16zM262 54q76 0 125 58q34 41 34 91v38q-76 21 -156 21 q-78 0 -119 -47q-23 -27 -23 -59q0 -72 77 -94q28 -8 62 -8z" glyph-name="ae" horiz-adv-x="968" unicode="æ"/>
<glyph d="M330 -45q47 0 63 -38q6 -14 6 -28q0 -51 -50 -72q-23 -9 -48 -9q-53 1 -88 28l19 42q29 -23 65 -23q38 0 48 27q2 6 2 11q-6 31 -39 34q-20 -1 -34 -11l-16 17l24 57q-107 15 -176 103q-58 75 -58 166q0 113 83 193q79 77 185 77q105 -1 184 -76l-52 -51q-56 59 -132 60 q-84 0 -141 -70q-48 -58 -48 -133q0 -93 67 -155q54 -49 122 -49q79 1 135 63l52 -51q-73 -72 -169 -78l-15 -35q5 1 11 1z" glyph-name="ccedilla" horiz-adv-x="542" unicode="ç"/>
<glyph d="M373 576h-58l-142 126l79 18zM309 55q76 0 138 41q15 10 25 21l46 -49q-50 -54 -149 -74q-31 -6 -59 -6q-109 0 -186 80q-76 79 -76 192q0 123 85 202q73 67 170 67q142 0 206 -120q39 -74 39 -179h-423q11 -99 85 -147q44 -28 99 -28zM306 462q-92 0 -144 -73 q-28 -40 -36 -92h348q-12 110 -91 149q-35 16 -77 16z" glyph-name="egrave" horiz-adv-x="595" unicode="è"/>
<glyph d="M423 702l-142 -126h-58l121 144zM309 55q76 0 138 41q15 10 25 21l46 -49q-50 -54 -149 -74q-31 -6 -59 -6q-109 0 -186 80q-76 79 -76 192q0 123 85 202q73 67 170 67q142 0 206 -120q39 -74 39 -179h-423q11 -99 85 -147q44 -28 99 -28zM306 462q-92 0 -144 -73 q-28 -40 -36 -92h348q-12 110 -91 149q-35 16 -77 16z" glyph-name="eacute" horiz-adv-x="595" unicode="é"/>
<glyph d="M303 662l-78 -86h-57l100 137h70l102 -137h-58zM309 55q76 0 138 41q15 10 25 21l46 -49q-50 -54 -149 -74q-31 -6 -59 -6q-109 0 -186 80q-76 79 -76 192q0 123 85 202q73 67 170 67q142 0 206 -120q39 -74 39 -179h-423q11 -99 85 -147q44 -28 99 -28zM306 462 q-92 0 -144 -73q-28 -40 -36 -92h348q-12 110 -91 149q-35 16 -77 16z" glyph-name="ecircumflex" horiz-adv-x="595" unicode="ê"/>
<glyph d="M207 597q-31 0 -43 29q-3 9 -3 17q0 29 27 42q10 4 19 4q29 0 42 -28q4 -9 4 -18q0 -30 -28 -42q-9 -4 -18 -4zM399 597q-31 0 -43 29q-3 9 -3 17q0 29 27 42q10 4 19 4q29 0 42 -28q4 -9 4 -18q0 -30 -28 -42q-9 -4 -18 -4zM309 55q76 0 138 41q15 10 25 21l46 -49 q-50 -54 -149 -74q-31 -6 -59 -6q-109 0 -186 80q-76 79 -76 192q0 123 85 202q73 67 170 67q142 0 206 -120q39 -74 39 -179h-423q11 -99 85 -147q44 -28 99 -28zM306 462q-92 0 -144 -73q-28 -40 -36 -92h348q-12 110 -91 149q-35 16 -77 16z" glyph-name="edieresis" horiz-adv-x="595" unicode="ë"/>
<glyph d="M85 576l-142 126l79 18l121 -144h-58zM75 0v517h75v-517h-75z" glyph-name="igrave" horiz-adv-x="225" unicode="ì"/>
<glyph d="M83 576l121 144l79 -18l-142 -126h-58zM75 0v517h75v-517h-75z" glyph-name="iacute" horiz-adv-x="225" unicode="í"/>
<glyph d="M-22 576l100 137h70l102 -137h-58l-79 86l-78 -86h-57zM75 0v517h75v-517h-75z" glyph-name="icircumflex" horiz-adv-x="225" unicode="î"/>
<glyph d="M17 597q-31 0 -43 29q-3 9 -3 17q0 29 27 42q10 4 19 4q29 0 42 -28q4 -9 4 -18q0 -30 -28 -42q-9 -4 -18 -4zM209 597q-31 0 -43 29q-3 9 -3 17q0 29 27 42q10 4 19 4q29 0 42 -28q4 -9 4 -18q0 -30 -28 -42q-9 -4 -18 -4zM75 0v517h75v-517h-75z" glyph-name="idieresis" horiz-adv-x="225" unicode="ï"/>
<glyph d="M390 608q141 -131 169 -260q8 -38 8 -79q0 -141 -89 -221q-68 -60 -163 -60q-126 0 -198 90q-57 70 -57 170q0 126 83 197q63 53 150 53q99 -1 167 -81q-42 80 -135 162l-122 -54l-27 62l91 40q-54 40 -81 58l76 31q41 -32 73 -58l99 44l27 -62zM315 56q92 0 141 74 q32 49 32 115q0 96 -66 150q-47 37 -110 37q-93 0 -142 -73q-32 -48 -32 -112q0 -104 71 -157q46 -34 106 -34z" glyph-name="eth" horiz-adv-x="627" unicode="ð"/>
<glyph d="M248 641q-38 0 -50 -66v-2l-46 7q17 118 96 119q32 0 74 -36q37 -29 55 -30q38 0 50 66v2l46 -7q-17 -118 -96 -119q-32 0 -74 36q-37 29 -55 30zM322 529q102 0 157 -77q37 -52 37 -123v-329h-75v319q0 84 -59 123q-31 20 -70 20q-79 0 -128 -54q-32 -36 -32 -79v-329 h-75v517h75v-83q34 63 111 86q30 9 59 9z" glyph-name="ntilde" unicode="ñ"/>
<glyph d="M328 576l-142 126l79 18l121 -144h-58zM316 -12q-111 0 -191 83q-77 81 -77 188q0 113 83 193q79 77 185 77q111 0 191 -83q76 -80 76 -187q0 -112 -82 -193q-79 -78 -185 -78zM316 55q84 0 141 71q47 58 47 133q0 92 -67 154q-54 49 -121 49q-84 0 -141 -70 q-48 -58 -48 -133q0 -93 67 -155q54 -49 122 -49z" glyph-name="ograve" horiz-adv-x="631" unicode="ò"/>
<glyph d="M236 576l121 144l79 -18l-142 -126h-58zM316 -12q-111 0 -191 83q-77 81 -77 188q0 113 83 193q79 77 185 77q111 0 191 -83q76 -80 76 -187q0 -112 -82 -193q-79 -78 -185 -78zM316 55q84 0 141 71q47 58 47 133q0 92 -67 154q-54 49 -121 49q-84 0 -141 -70 q-48 -58 -48 -133q0 -93 67 -155q54 -49 122 -49z" glyph-name="oacute" horiz-adv-x="631" unicode="ó"/>
<glyph d="M181 576l100 137h70l102 -137h-58l-79 86l-78 -86h-57zM316 -12q-111 0 -191 83q-77 81 -77 188q0 113 83 193q79 77 185 77q111 0 191 -83q76 -80 76 -187q0 -112 -82 -193q-79 -78 -185 -78zM316 55q84 0 141 71q47 58 47 133q0 92 -67 154q-54 49 -121 49 q-84 0 -141 -70q-48 -58 -48 -133q0 -93 67 -155q54 -49 122 -49z" glyph-name="ocircumflex" horiz-adv-x="631" unicode="ô"/>
<glyph d="M380 575q-32 0 -74 36q-37 29 -55 30q-38 0 -50 -66v-2l-46 7q17 118 96 119q32 0 74 -36q37 -29 55 -30q38 0 50 66v2l46 -7q-17 -118 -96 -119zM316 -12q-111 0 -191 83q-77 81 -77 188q0 113 83 193q79 77 185 77q111 0 191 -83q76 -80 76 -187q0 -112 -82 -193 q-79 -78 -185 -78zM316 55q84 0 141 71q47 58 47 133q0 92 -67 154q-54 49 -121 49q-84 0 -141 -70q-48 -58 -48 -133q0 -93 67 -155q54 -49 122 -49z" glyph-name="otilde" horiz-adv-x="631" unicode="õ"/>
<glyph d="M220 597q-31 0 -43 29q-3 9 -3 17q0 29 27 42q10 4 19 4q29 0 42 -28q4 -9 4 -18q0 -30 -28 -42q-9 -4 -18 -4zM412 597q-31 0 -43 29q-3 9 -3 17q0 29 27 42q10 4 19 4q29 0 42 -28q4 -9 4 -18q0 -30 -28 -42q-9 -4 -18 -4zM316 -12q-111 0 -191 83q-77 81 -77 188 q0 113 83 193q79 77 185 77q111 0 191 -83q76 -80 76 -187q0 -112 -82 -193q-79 -78 -185 -78zM316 55q84 0 141 71q47 58 47 133q0 92 -67 154q-54 49 -121 49q-84 0 -141 -70q-48 -58 -48 -133q0 -93 67 -155q54 -49 122 -49z" glyph-name="odieresis" horiz-adv-x="631" unicode="ö"/>
<glyph d="M298 442q-35 0 -50 32q-5 11 -5 23q0 32 30 47q12 6 25 6q33 0 48 -30q5 -12 5 -23q0 -35 -31 -50q-11 -5 -22 -5zM67 297v74h459v-74h-459zM298 118q-35 0 -50 32q-5 11 -5 23q0 32 30 47q12 6 25 6q33 0 48 -30q5 -12 5 -23q0 -35 -31 -50q-11 -5 -22 -5z" glyph-name="divide" horiz-adv-x="593" unicode="÷"/>
<glyph d="M513 439q70 -79 70 -180q0 -112 -82 -193q-79 -78 -185 -78q-80 1 -148 46l-29 -34h-85l66 77q-72 77 -72 182q0 113 83 193q79 77 185 77q80 -1 149 -47l30 35h85zM127 259q1 -72 41 -125l251 294q-49 34 -103 34q-84 0 -141 -70q-48 -58 -48 -133zM316 55q84 0 141 71 q47 58 47 133q-1 66 -39 123l-251 -294q48 -33 102 -33z" glyph-name="oslash" horiz-adv-x="631" unicode="ø"/>
<glyph d="M365 576h-58l-142 126l79 18zM440 517h75v-517h-75v83q-34 -63 -111 -86q-30 -9 -59 -9q-102 0 -157 77q-37 52 -37 123v329h75v-319q0 -84 59 -123q31 -20 70 -20q79 0 128 54q32 36 32 79v329z" glyph-name="ugrave" unicode="ù"/>
<glyph d="M415 702l-142 -126h-58l121 144zM440 517h75v-517h-75v83q-34 -63 -111 -86q-30 -9 -59 -9q-102 0 -157 77q-37 52 -37 123v329h75v-319q0 -84 59 -123q31 -20 70 -20q79 0 128 54q32 36 32 79v329z" glyph-name="uacute" unicode="ú"/>
<glyph d="M295 662l-78 -86h-57l100 137h70l102 -137h-58zM440 517h75v-517h-75v83q-34 -63 -111 -86q-30 -9 -59 -9q-102 0 -157 77q-37 52 -37 123v329h75v-319q0 -84 59 -123q31 -20 70 -20q79 0 128 54q32 36 32 79v329z" glyph-name="ucircumflex" unicode="û"/>
<glyph d="M199 597q-31 0 -43 29q-3 9 -3 17q0 29 27 42q10 4 19 4q29 0 42 -28q4 -9 4 -18q0 -30 -28 -42q-9 -4 -18 -4zM391 597q-31 0 -43 29q-3 9 -3 17q0 29 27 42q10 4 19 4q29 0 42 -28q4 -9 4 -18q0 -30 -28 -42q-9 -4 -18 -4zM440 517h75v-517h-75v83q-34 -63 -111 -86 q-30 -9 -59 -9q-102 0 -157 77q-37 52 -37 123v329h75v-319q0 -84 59 -123q31 -20 70 -20q79 0 128 54q32 36 32 79v329z" glyph-name="udieresis" unicode="ü"/>
<glyph d="M214 576l121 144l79 -18l-142 -126h-58zM153 -180q-45 0 -82 17l18 64q27 -13 61 -13q46 0 72 41q2 3 3 5l30 64l-225 519h83l181 -430l171 430h81l-236 -575q-43 -105 -127 -119q-15 -3 -30 -3z" glyph-name="yacute" horiz-adv-x="593" unicode="ý"/>
<glyph d="M346 529q112 0 180 -88q58 -75 58 -182q0 -134 -84 -212q-65 -59 -154 -59q-117 0 -180 96q-5 7 -8 13v-269h-75v871h75v-279q57 100 170 108q9 1 18 1zM332 55q89 0 139 77q34 54 34 127q0 111 -71 168q-44 35 -102 35q-92 0 -141 -78q-33 -53 -33 -125q0 -110 70 -168 q45 -36 104 -36z" glyph-name="thorn" horiz-adv-x="638" unicode="þ"/>
</font>
</defs>
</svg>
